<?xml version="1.0" encoding="utf-8"?>
<!-- Generator: Adobe Illustrator 23.1.1, SVG Export Plug-In . SVG Version: 6.00 Build 0)  -->
<svg version="1.1" id="Layer_1" xmlns="http://www.w3.org/2000/svg" xmlns:xlink="http://www.w3.org/1999/xlink" x="0px" y="0px"
	 viewBox="0 0 1080 1080" enable-background="new 0 0 1080 1080" xml:space="preserve">
<g>
	<g>
		<path fill="#008458" d="M932.9,485.7c-15.2-161.1-52.7-223-54.3-225.4l-5.2-8.4c0,0-29.2,2.4-56.7-0.8
			c-28.1-3.2-63.7-11.1-95.9-29.8c-85.6-49.7-171.4-50.2-180.9-50.1c-9.4-0.1-95.3,0.4-180.9,50.1C327,240,291.3,248,263.2,251.2
			c-27.5,3.1-56.7,0.8-56.7,0.8l-5.2,8.4c-1.5,2.4-39.1,64.2-54.2,225.4c-8.1,86.3-3.4,182,31.3,269.6
			c93,235.2,348.7,312.8,361.7,316.7c12.9-3.9,268.6-81.5,361.7-316.7C936.3,667.7,941.1,572,932.9,485.7z M922.7,591H754.9
			c0,0.3,0,0.5,0,0.7c0,18.5-1.6,35.9-4.6,52.1h167.5c-2.6,18.4-6.2,36-10.6,52.9H734.9c-8.1,19.6-18.2,37.1-29.5,52.8H890
			c-91.4,231-340.2,306.9-349.4,309.7v0.1c-9.5-2.8-258.6-78.6-350-309.7h185c-11.3-15.7-21.4-33.2-29.5-52.8H173.3
			c-4.5-16.9-8.1-34.5-10.7-52.9h167.9c-3-16.3-4.6-33.6-4.6-52.1c0-0.3,0-0.5,0-0.7H157.8c-0.3-7.3-0.5-14.6-0.5-22.2
			c0-10.5,0.1-20.7,0.4-30.5H328c1.7-20.6,4.3-38.1,7.2-52.8H160.2c11.2-160.5,52.3-220,52.3-220s83.3,7,153.3-33.8
			c87-50.5,174.5-48.3,174.5-48.3s87.6-2.2,174.7,48.3c70.1,40.7,153.3,33.8,153.6,33.8c0,0,40.7,60.7,51.8,220H745.6
			c2.9,14.6,5.5,32.1,7.2,52.8h169.9c0.3,9.8,0.4,20,0.4,30.4C923.2,576.2,922.9,583.7,922.7,591z"/>
	</g>
	<g>
		<path fill="#008458" d="M330.2,820.4l-19.9-20.1l-41.1,40.5l10.9,11.2l16.8-16.3l8.8,8.9c11,11.3,22.2,11.3,28.8,4.8
			C342.7,841.5,339.6,829.9,330.2,820.4z M323,837.9c-3.1,3.1-8.3,0.7-13.4-4.3l-5.2-5.2l9.6-9.4l4,4
			C323.9,829,326.5,834.6,323,837.9z"/>
	</g>
	<g>
		<path fill="#008458" d="M450.6,879.1l-29.7-8.6l-16.5,55.6l15.1,4.6l6.7-22.6l4.3,1.4c9.6,2.4,9.9,13.9,12.9,27.6l17,3.6
			c-3.7-18.7-4.7-24.6-10.2-29.3c7.8-0.9,13.5-4.3,15.4-10.4C468,892.7,463,882.9,450.6,879.1z M449.9,896.8
			c-1.1,4.7-7.1,5.1-12.7,3.7l-8.1-2.4l3.8-12.3l7.6,2C446.3,889.6,450.9,892.3,449.9,896.8z"/>
	</g>
	<g>
		<path fill="#008458" d="M804.5,845.1c8.8-9.6,17.4-20.7,17.4-20.7l-8.2-6.6c0,0-4.6,6.3-12.8,15.1c-8.3,9.1-10.5,10.8-10.5,10.8
			l-32.8-34.5L746.5,820l40,42.3C786.5,862.4,795.7,854.7,804.5,845.1z"/>
	</g>
	<g>
		<path fill="#008458" d="M506.7,888.6c-11.9-1-23.1-2.5-31.7-4.1l-1.5,10.6c0,0,5.8,1,10.9,1.7c4.5,0.6,12.9,1.5,12.9,1.5
			l-4.1,46.9l15.8,1.4l4.1-46.9c0,0,6,0.4,12.4,0.6c5.6,0.2,12,0.2,12,0.2l0.3-10.5C527.5,890.1,517.7,889.6,506.7,888.6z"/>
	</g>
	<g>
		<path fill="#008458" d="M608.6,883.5l-15.8,2.6l4.1,32.6c0.9,10.3-7.6,15-15.9,15.6c-9.8,0.9-16.4-4.3-17.1-12.5l-1.7-32.7
			l-15.8,0.7l0.9,33.3c1.6,17.8,16.6,24.8,35,23.2c17.3-1.6,32.5-10.3,30.9-29.4L608.6,883.5z"/>
	</g>
	<g>
		<path fill="#008458" d="M380.2,853c-21.1-11.3-40.8-4.1-47.3,8.2c-7,13-1,33.1,19.5,44.1c20.2,10.7,40.7,4.2,47.7-8.9
			C406.5,884.1,401.3,864.1,380.2,853z M385.2,888.7c-5,9.3-16.6,11.5-27.2,5.8c-10.7-5.6-15.8-16.5-10.8-25.8
			c5-9.3,16.5-10.9,27.2-5.2C385.1,869.1,390.2,879.4,385.2,888.7z"/>
	</g>
	<g>
		<path fill="#008458" d="M666.4,895.3l3.4,10.1l8.8-3.1l2.1,6.4c-3.8,3.1-5.5,4.1-9.2,5.3c-12.4,4.3-26.6,2-29.9-7.7
			c-2.7-8.1,3.4-20.4,19.6-25.9c7.3-2.6,15.3-3.5,24.1-2.7l-4.1-11.9c-6.8-0.5-16.3,0.6-25.2,3.7c-21.3,7.4-35.6,25.1-29.9,41.7
			c5.7,16.3,28.1,21.6,49,14.3c9.6-3.4,19.6-10.3,22.6-16l-7.7-22.3L666.4,895.3z"/>
	</g>
	<g>
		<path fill="#008458" d="M726.4,903.1l-0.9-12.9l27.3-16.9l10.3,7.1l13.4-9.8l-52.9-33.6l-15.6,9.8l3.7,63.7L726.4,903.1z
			 M743.5,867.1l-19.7,12.4l-2-26.2L743.5,867.1z"/>
	</g>
	<g>
		<path fill="#008458" d="M326.9,359.6l14.6-12.4c14-11.5,13.8-26.4,8.1-34.6c-6.2-8.9-18.5-11.5-30.7-4
			c-11.5,7.3-19.5,14.8-36.1,29.8l45.9,55.4l14.8-13.3L326.9,359.6z M307.4,336.1l7.4-6.3c8.8-7.6,14.4-9.2,18.1-5.1
			c4.7,5.1,0.4,11.7-5.3,16.4l-9.8,8.4L307.4,336.1z"/>
	</g>
	<g>
		<path fill="#008458" d="M422,339.1c28.6-11,38.7-34.9,33.4-52.5c-6.1-20.6-28.6-30.9-58.2-18.3c-28.4,12.2-37.5,33.3-32.8,50.7
			C369.5,337.7,388.7,352,422,339.1z M401.4,283c17-6.8,30.3-1.9,34.6,11.2c4.1,11.9-5.6,25.3-19,30.8c-16.6,6.6-30.4,0.6-33.9-12.2
			C379.5,300.1,390.2,287.5,401.4,283z"/>
	</g>
	<g>
		<path fill="#008458" d="M497,320.2l-3.2-28.2l6.2-0.6c10.7-1,17.5,11.8,27.4,26.4l23.2,0.1c-12.9-20.1-21.6-34.4-28.7-33
			c7.4-1.5,17.8-9.1,16.6-20.5c-2-17.6-18.8-18.6-33.3-17.8c-14.4,0.7-36.2,4.1-36.2,4.1l8.2,72L497,320.2z M501.6,260.2
			c7.3-0.6,14.9-0.6,16,6.6c1.2,8.2-7.1,10.8-14,11.2l-11.2,1.2l-1.9-17.8L501.6,260.2z"/>
	</g>
	<g>
		<path fill="#008458" d="M579.3,259.7l-7.3,59.6l19.7,2.4l7.2-59.2c0,0,5.3,0.6,14.6,2.4c9.4,1.6,13.9,2.7,13.9,2.7l2.5-12.3
			c-14.2-2.9-27.3-5.2-38.4-6.6c-10.9-1.2-26.9-2.6-40.2-2.8l-0.9,12.2c0,0,3.8,0,14.3,0.6C576.1,259.2,579.3,259.7,579.3,259.7z"/>
	</g>
	<g>
		<polygon fill="#008458" points="646.9,334.6 666.7,265 647.6,259.5 627.8,329.2 		"/>
	</g>
	<g>
		<polygon fill="#008458" points="683.6,349.7 702.6,310.4 719.1,370 732.9,380.5 773.3,319.7 756.3,307.8 731.4,345.8 712.7,283.6 
			696.6,276.2 665.4,341.6 		"/>
	</g>
	<g>
		<path fill="#008458" d="M766.9,419.1c7.3,10.6,21.5,23.8,29.9,26.9l23-11.9l-15.5-30.9l-10.2,5.7l7.1,13.3l-8.2,4.3
			c-5.1-3.5-11.4-11-14-15.3c-8.7-14.5-5.7-28.9,2.2-34.8c9.7-7.3,23.7-6,35.4,10.8c6.2,8.8,12.5,22.7,14.9,34.4l13.5-9.9
			c-2.6-8.9-9.4-24.1-17-34.4c-16.6-23-40-30.7-58-18C752.2,371.8,750.9,396.2,766.9,419.1z"/>
	</g>
	<g>
		<path fill="#008458" d="M302.9,386.3c-21-13-43.3,27.8-51.6,21.7c-2.8-2-2.1-7.6,2.2-14.6c4.2-6.7,9.9-12.7,20.9-21.7l-11.7-7.2
			c-9.4,7.9-15.8,15.1-21.2,24c-11.3,18.3-10.3,33,0.1,39.4c21.5,13.4,40.6-28.6,50.5-22.3c3.5,2.1,3.6,8.2-1,15.8
			c-5.5,8.7-11.8,14.4-24.4,22.2l12.9,8c7.9-6,14.9-11.1,23.5-25C313.7,409.1,313.9,393,302.9,386.3z"/>
	</g>
	<g>
		<path fill="#008458" d="M714.8,432.1c0,0-44.3,3.6-81.6-18c-46.3-26.9-92.9-25.7-92.9-25.7s-46.6-1.2-92.9,25.7
			c-37.2,21.6-81.6,18-81.6,18s-29.3,42.3-29.3,161.3c0,202,203.7,261,203.7,261s203.7-59,203.7-261
			C744.3,474.4,714.8,432.1,714.8,432.1z M733.5,594.9c0,191.4-193,247.2-193,247.2s-192.9-55.7-193.1-247.2
			c0-112.7,27.8-152.8,27.8-152.8s42,3.5,77.3-17c43.8-25.4,87.9-24.3,87.9-24.3s44.1-1.1,88,24.3c35.4,20.5,77.2,17,77.2,17
			S733.5,482.1,733.5,594.9z"/>
	</g>
	<g>
		<path fill="#008458" d="M380.3,137.7c3.2,7.4-3.6,15.4-19.5,22.3c-18.5,8-35.1,9.9-64.4,8.2l11.8,27.4
			c19.5-0.7,36.5-1.1,65.8-13.8c37.4-16,58.4-41.8,47.8-66.2c-19-44.4-102-2.4-110.2-21.5c-2.7-6.3,5.1-14.5,20.1-21
			c14.2-6.2,30-9.2,58-11.5l-10.7-24.7c-24.1,2.1-42.3,6.4-61.1,14.5c-38.9,16.8-57.6,42-48.2,64.1
			C289.3,161.2,371.4,116.9,380.3,137.7z"/>
	</g>
	<g>
		<path fill="#008458" d="M550.5,150c26.9-0.1,46.2-4,71.6-14l-0.1-30.2c-26.2,9.6-42.2,15.3-66,15.4c-37.9,0-64.9-17.5-65.1-42.2
			c0-24.6,27.2-42.1,65.9-42.2c22.5,0,42.8,5.6,62.9,14L619.7,20C601.8,12,578.9,8,553.5,8C483.8,8.2,444,42.8,444.1,79.8
			C444.2,115.4,479.6,150.1,550.5,150z"/>
	</g>
	<g>
		<path fill="#008458" d="M710.3,121.1l36.7,12.2c39.6,12.9,63.6-2.5,69.5-20.9c5.8-17.8-5.1-44.3-44.3-57.1l-76.6-25l-42.5,130.1
			l40.1,12.9L710.3,121.1z M727.9,67.1l17.9,6c23.2,7.6,34,14.8,30.4,25.8c-3.1,9.8-15.8,12.3-35.5,6l-22.6-7.6L727.9,67.1z"/>
	</g>
	<g>
		<path fill="#008458" d="M422.8,719.6L422.8,719.6C422.8,719.6,422.8,719.6,422.8,719.6z"/>
	</g>
	<g>
		<path fill="#008458" d="M437.8,696c5.7,0.9,6.6,5.2,7,6.7c0,0-11.7-5-19.6,1.2c-7.2,5.7-2.7,15-2.4,15.6c0-0.1,2.4-4.5,7.6-6.2
			c6.1-2.1,10.8-0.9,10.8-0.9s-4.8,2-8.1,5.8c-3.5,4.1-3,8.6-3,8.6c4.7-3.5,8.2-0.9,12.9-0.4c10.8,1.1,11.7-12,25.7-13.9
			c15-1.9,26.3,4.6,26.3,4.6s0.1-4-3.5-7.1c-3.4-2.8-7.4-2.8-7.4-2.8s3.7-2.6,8.8-2.5c9.1,0.1,13.5,5.1,23.1,5.6
			c10.7,0.6,16.6-5.3,16.6-5.3s-6,0.1-12.1-4.2c-6.3-4.5-13.5-2.2-13.5-2.2s2.1-8.2,14.3-8.1c12.2,0.3,23.6,6.7,23.6,6.7
			s-6.7-7.8-3.6-22.8c3.1-14.4,13.5-21.2,13.5-21.2s-8.2-0.6-15.8,3.2c-8.8,4.2-11.8,8.7-11.8,8.7s-0.4-6,6.3-12
			c7.8-7,12.2-7.8,12.2-7.8c-2.4-0.5-9.3,0.1-18.5,2.5c-11.7,3.2-16.1,6.6-16.1,6.6s-0.6-7,10.8-10.8c14.4-4.8,12.7-9.3,12.7-9.3
			c-7.2,4.5-15.6,1.9-29.6,2.7c-16.1,0.9-20.1,12.9-20.1,18.9c0.3,11.9,9.8,17.2,9.2,25.6c-0.6,9.9-16.1,17.3-26.6,16.3
			c-10.4-1-16.9-10.8-26.6-10.4c-11.2,0.5-11.8,9.8-11.8,9.8S433.1,695.3,437.8,696z"/>
	</g>
	<g>
		<path fill="#008458" d="M481.3,491.9c5.8,0,13.4-1.7,24.2-5.7c12.2-4.5,21.1-2.6,23-2.2c-9.2-8.7-33.9,2.6-46.8,1.9
			c-9.7-0.4-17.1-4.5-17.1-4.5C463.5,480.2,466.2,491.9,481.3,491.9z"/>
	</g>
	<g>
		<path fill="#008458" d="M443.6,530.5c-3,2.1-5.3,5.6-8.7,7.1c-4.1,1.7-6.3,1.4-6.3,1.4s2.5,3.2,12.5,2.7
			c10.2-0.4,12.9-6.5,20.1-8.6c6.5-2,8.4,0.7,8.4,0.7s-3.9,0.3-8.3,3.4c-4,2.6-5.5,4.8-9.3,8.4c-4,3.6-7.8,4.3-7.8,4.3
			c0.9,1.4,15,6.3,30.8-9.1c6.8-6.5,8.6-12.8,18.4-18.7c0,0-22.3,2-44.9-11c-15.3-8.7-15.8-26.2-20.9-32.3c-6.2-7.3-14.1-3-14.4-2.8
			c1.4,0.9,4.2,3.4,5.5,5.7c2.2,4.3,2,7.4,2,7.4c-2.1-3.8-8.2-12.2-17.8-11.7c-9.4,0.4-12.4,8.7-12.4,8.7c3-0.7,4.6-1.1,7.9-0.4
			c4.7,1,9.6,6.6,10.7,8.9c0,0-2.1,0-6.3-2.4c-7.6-4.2-15.3-2.8-17.6,1.1c1.9,0.3,3.8,1.2,5.7,3.1c1.5,1.7,7.4,8.4,19.1,8.9
			c19.9,1,22.3,10.4,22.2,14.3c-0.1,4-3.5,7.6-3.5,7.6c7,1.5,7.6-2.2,16.4-2.5c5.2-0.1,7.6,2.9,7.6,2.9S448,527.4,443.6,530.5z"/>
	</g>
	<g>
		<path fill="#008458" d="M645.4,516.5c3.2-0.6,6.2,0,6.9,0.1c0,0,0-0.1,0-0.1c0.2,0.1,0.2,0.1,0,0.1c-0.4,1.1-5.6,15.5,11.4,16.8
			c16.6,1.4,24.1-6.6,24.1-6.6s-7.6,2-14.8,0.1c-7.8-2-7-6.8-7-6.8s6.3,3.2,12.7,3.7c11.3,0.7,15.4-5,15.9-6.2c0,0-5.6,1.7-11.1,1.1
			c-9.1-1.1-8.8-5.3-8.8-5.3s5.8,2.1,13.5,0.7c11.2-1.9,13-8.6,12.4-10.7c0,0-2.5,6.3-16,4c-7.1-1.2-7.8-2.9-15.4-3.2
			c-7.8-0.5-13.9,5.6-14.5,7.2c0,0-4.2-0.7-9.4-0.2c-5.3,0.5-27.2,6.3-26.4,36.6c0.7,30.5,30.3,64.6,29.3,87.1
			c-0.7,15.8-11.9,19.7-17.1,20.1c-10.9,0.7-25.1-4.7-38.1-35.9c-7.1-16.9-9.4-34.4-8.2-51.5c0,0-4.1,1.9-5.7,8.2
			c-1.1,4.3-0.7,7.2,0,10.2c0,0-8.3-3.1-7.5-15.3c1-13.3,4.6-16.8,5.5-27.6c0.6-8.2-4.3-15-4.3-15s10.9,1.4,13,15.5
			c3.7,24.6,13.7,22.6,13.8,22.7c-6.6-10.2-2.4-25.4-4.5-38.2c-3.1-19.4-16.6-15-17-15c0,0,2.1-7,8.9-7c5.1,0,9.7,5,13.9,15.5
			c4.1,10.3,9.9,8.3,9.9,8.3c-5.1-5.6-3.6-15.3-6.7-23.7c-7.7-20.5-22.3-16.4-22.6-16.4c0.4-0.7,1.6-6.8,9.4-7
			c5.5-0.1,10.5,4,13.5,11.1c2.9,6.6,7.6,5.6,7.8,5.6c-2.2-2.1-3.2-2.9-3.8-13.7c-0.6-12.5-10.8-16.8-17.4-16.6
			c-6.6,0.1-10.7,4.6-10.7,4.6c0.1-0.7-1.5-8.6,8.1-10.8c8.3-2,16,3.6,17.1,4.2c0.3-1.5,0.6-11.4-15.4-12.8
			c-7.8-0.6-19.1,2.2-22.6-1.7c0,0,6.5,0,11.3-2.2c4.8-2.4,8.7-6.5,8.7-6.5c-10.2,3.2-24.7-4.2-33.5-4.6
			c-12.3-0.4-14.6,5.2-14.6,5.2c-3.5-1.9-10.7-2.5-13.3-2.5c-2-0.1-12.7-0.4-12.7,6c0,9.6,27.9,4.1,28.7,4c0,0-0.3,2.9-11.4,5.3
			c-4.6,1-6.3,3-7.3,5.5c0.4-0.7-0.4-2.2-1.4-3.5c-1.9-2.5-5-5-15-4.5c-3.5,0.1-15.3,2.2-15.3,7.2c0,4.6,9.4,2.5,9.4,2.5
			s0.1,0.9-3.1,2.2c-2.1,0.9-3.5,2.1-3.8,4.1c-0.9,4.8,5,8.9,5,8.9s4-8.1,17-8.1c13.8,0,20.4,7.7,19.9,14c-0.2,3.5-3,8.1-12.9,8.4
			c-9.8,0.4-17.1-2.1-17.1-2.1s-1.7,4.8,1.5,7.7c4.8,4.3,7,7.5,6.8,12.4c0,0,5.8-9.7,13.9-11.1c3.5-0.6,8.6,0.1,8.4,4.5
			c-0.2,8.7-17.8,11.5-21.2,12.4c-15.2,3.7-19.9,8.3-20.5,12.3c3.6-1.5,7.3-1.7,13.2-1.5c9.9,0.5,14.5-5.1,14.5-5.1
			c0.7,7.3-14,11.9-27.7,16.6c-18.3,6.4-21.5,18-22,24c0,0-33.3,23.6-49.8,22.8c-14.8-0.6-13.4-9.2-24.2-9.1
			c-11.4,0.1-13,10.4-13,10.4s3.4-2,9.4-1.6c5,0.4,7.1,2.1,7.9,3.7c0,0-11.4-1.6-17.8,3.2c-8.4,6.4-2.1,15.5-2.1,15.5
			s2.1-4.3,8.4-6.6c6.7-2.5,12.4-0.6,12.4-0.6c-1,0.4-11.5,1.7-14.4,9.4c-2.2,6.2,3.6,10.7,5.3,11.4c0,0,5.8-12.8,26.1-16.8
			c19.4-3.7,33.8,4.1,33.8,4.1c-1-3.7-3.8-6.2-4.7-7c-3.2-2.8-7.2-4.1-7.2-4.1s1.1-3,5.8-3.4c12.2-0.9,14.9,10.1,29.2,11.2
			c8.6,0.6,14-4.2,14-4.2s-4.8,2.1-11.7-5.5c-6.2-7-14.1-5.8-14.1-5.8s5-4.1,12.4-3.7c10.8,0.6,16.9,11,24.8,12.9
			c8.8,2.1,12.3,0.1,12.3,0.1c-0.4,0.6-1,2.6-5.7,4.8c-1.5,0.9-5.3,1.4-6.8,1.2c0,0,1.3,15.4,46.6,26.9c15,3.8,17,7.2,16.4,12.9
			c-1.1,10.2-14,14.3-14.8,33.1c-0.7,19.2,14.5,24.3,17.9,32.7c3.6,8.4-1.4,15.1-1.4,15.1c4.8,1.1,8.3-3.6,11.8-5.6
			c6.5-3.6,12.8,0.4,11.4,10.7c-1.1,9.1-10.2,33-21.3,32.7c-7.8-0.3-7-1.7-14.5-1.9c-7.1-0.1-8.1,5.2-8.2,7.4
			c-0.3,4,3.3,9.6,3.3,9.6s1.3-3.1,6.3-4.7c4-1.3,6.8-1.1,10.1-1.1c0,0-9.6,5.1-10.3,12.9c-0.6,5.7,2.2,7.6,2.2,7.6s2.1-3.2,7.7-4.1
			c6.2-0.9,10.2-2.6,16.6-11.2c0,0,2.1,1.2-1.1,7.6c-2.9,5.6,0,9.7,0,9.7s2.1-2.9,4.8-4c4.2-1.9,11.5-2.6,12.5-8.4
			c1-5.7-6.9-10.4-2.7-20.6c3.4-8.2,9.4-10.2,14.4-12.8c9.3-4.7,8.7-7.7,8.7-7.7c-3.2,1.5-6.6-0.3-10.7,0c-3.6,0.4-5.8,2.7-5.8,2.7
			s0-7.2,7.8-12.9c8.2-6.1,20.7-6.8,26.8-16.4c5.8-9.1,0.7-14.3,0.7-14.3c-0.3,2.4-2.7,5.6-11.2,9.2c-7.7,3.4-10.8,6.1-13,9.1
			c0,0-0.9-17,17.9-23.8c21.2-7.8,15-18.6,14-20.1c0,0-4.1,7.3-12.5,7.4c-12.4,0.4-13-15.4-13.3-15.5c4.4,2.5,10.7,3.1,18.1,1.5
			c11.8-2.6,15.3-9.4,16-12.9c-0.9,0.5-10.8,8.8-16.3,3.6c0,0,20.7-4.6,21.5-28.4c1-27.1-20.1-41.2-30.9-69.9
			C625.1,552.7,619.6,521.6,645.4,516.5z M537.9,544.8c3.2,4,5,19.6-11.4,26.8c-6.1,2.6-12.9,2-20,3.4c-2.5,0.5-5.1,1.1-8.6,3.5
			c0,0-0.4-7.9,20.2-14.5C540.9,556.7,537.9,544.8,537.9,544.8z M559.3,545c0,0,1.5,0.5,3.5,4.8c1.6,3.5,4.2,15.9-3.5,22.8
			c-5.6,5-15,6.5-22,8.1c-4.2,1.1-7.1,3-9.2,5c0,0-1.6-5.1,4.6-9.6c9.3-6.7,19-7,24.2-16.9C560.3,552.9,560.2,547.9,559.3,545z
			 M474.7,570.6c0,0,3.8-11.9,18.4-14.8c17-3.5,19.4-7.1,23.2-12.2c0,0,1.9,13.3-14,19.4c-9.2,3.5-13.5,2.2-20.1,3.8
			C477,568.3,474.7,570.6,474.7,570.6z M512.4,610.2L512.4,610.2c0,0,10.3,3.8,21.9,3.5c8.6-0.4,18.1-3.6,24.7-7.3
			c0,0-7.4,10.7-23.8,11.8C520.3,619.1,512.4,610.2,512.4,610.2z M554.3,628.4c-13.9,0.6-19.4-6.3-19.4-6.3s11.2,2.5,19,2.1
			c9.7-0.5,15.4-1.7,20.4-3.7C574.2,620.4,568.9,627.7,554.3,628.4z M574,710c0,0-0.6-3.7-3.6-8.4c-4.7-7.6-9.1-11.8-9.4-21.1
			c-0.6-12.5,11.1-24.8,11.1-24.8s-7.3,16.6-4.5,28.7C569.9,693.6,576.8,704.2,574,710z"/>
	</g>
</g>
</svg>
